<svg width="1476" height="1549" viewBox="0 0 1476 1549" fill="none" xmlns="http://www.w3.org/2000/svg">
<path d="M362.047 484.508L361.437 482.603V482.603L362.047 484.508ZM84.5478 1042.62L83.4016 1044.26L84.5478 1042.62ZM419.068 1070.86L419.811 1072.71V1072.71L419.068 1070.86ZM891.481 1228.84L893.477 1228.96V1228.96L891.481 1228.84ZM1453.81 1280.84C1453.81 1286.73 1458.59 1291.5 1464.48 1291.5C1470.37 1291.5 1475.15 1286.73 1475.15 1280.84C1475.15 1274.95 1470.37 1270.17 1464.48 1270.17C1458.59 1270.17 1453.81 1274.95 1453.81 1280.84ZM1376.43 1.33704L1374.95 4.56572e-05C1374.05 1.00031 1373.15 1.99785 1372.25 2.99266L1373.73 4.33371L1375.22 5.67476C1376.12 4.67724 1377.02 3.677 1377.92 2.67403L1376.43 1.33704ZM1368.33 10.2781L1366.86 8.92898C1365.06 10.8969 1363.26 12.8541 1361.46 14.8005L1362.93 16.1578L1364.4 17.515C1366.2 15.5632 1368 13.6007 1369.81 11.6273L1368.33 10.2781ZM1357.53 21.973L1356.06 20.6076C1354.27 22.5327 1352.47 24.4471 1350.67 26.3509L1352.12 27.7245L1353.58 29.098C1355.38 27.1887 1357.18 25.2689 1358.99 23.3384L1357.53 21.973ZM1346.72 33.4125L1345.27 32.0308C1343.42 33.9667 1341.57 35.8915 1339.72 37.8053L1341.16 39.1952L1342.6 40.5852C1344.45 38.6659 1346.31 36.7355 1348.16 34.7941L1346.72 33.4125ZM1335.58 44.9389L1334.15 43.5406C1332.29 45.4413 1330.43 47.331 1328.57 49.2098L1329.99 50.6165L1331.41 52.0231C1333.28 50.1388 1335.14 48.2435 1337.01 46.3372L1335.58 44.9389ZM1324.41 56.2284L1322.99 54.8134C1321.13 56.6704 1319.28 58.5166 1317.42 60.352L1318.82 61.7754L1320.23 63.1987C1322.09 61.3577 1323.96 59.506 1325.82 57.6434L1324.41 56.2284ZM1313.17 67.3241L1311.77 65.8923C1309.85 67.7632 1307.93 69.6227 1306.02 71.471L1307.4 72.9113L1308.79 74.3516C1310.71 72.4976 1312.64 70.6324 1314.56 68.7558L1313.17 67.3241ZM1301.64 78.4309L1300.26 76.9821C1298.34 78.808 1296.42 80.6227 1294.5 82.4264L1295.87 83.8837L1297.24 85.341C1299.17 83.5317 1301.09 81.7113 1303.02 79.8798L1301.64 78.4309ZM1290.11 89.27L1288.75 87.8042C1286.82 89.5905 1284.9 91.3657 1282.97 93.13L1284.32 94.6043L1285.68 96.0785C1287.61 94.3086 1289.54 92.5277 1291.47 90.7358L1290.11 89.27ZM1278.38 100.015L1277.04 98.5321C1275.06 100.321 1273.09 102.099 1271.11 103.866L1272.44 105.357L1273.77 106.849C1275.76 105.076 1277.74 103.293 1279.73 101.498L1278.38 100.015ZM1266.5 110.631L1265.18 109.131C1263.2 110.875 1261.22 112.608 1259.24 114.33L1260.56 115.838L1261.87 117.347C1263.85 115.62 1265.84 113.881 1267.82 112.131L1266.5 110.631ZM1254.61 120.979L1253.31 119.461C1251.28 121.206 1249.25 122.938 1247.22 124.66L1248.51 126.185L1249.8 127.711C1251.84 125.984 1253.88 124.246 1255.91 122.496L1254.61 120.979ZM1242.39 131.332L1241.11 129.797C1239.08 131.498 1237.04 133.188 1235.01 134.866L1236.28 136.409L1237.55 137.952C1239.59 136.268 1241.64 134.573 1243.68 132.866L1242.39 131.332ZM1230.16 141.419L1228.9 139.868C1226.86 141.524 1224.83 143.169 1222.79 144.802L1224.04 146.362L1225.29 147.922C1227.34 146.283 1229.38 144.632 1231.42 142.971L1230.16 141.419ZM1217.77 151.357L1216.53 149.788C1214.44 151.441 1212.35 153.083 1210.26 154.713L1211.49 156.29L1212.72 157.867C1214.82 156.231 1216.92 154.584 1219.01 152.925L1217.77 151.357ZM1205.21 161.155L1203.99 159.569C1201.9 161.177 1199.81 162.773 1197.72 164.359L1198.92 165.952L1200.13 167.546C1202.23 165.956 1204.33 164.354 1206.43 162.741L1205.21 161.155ZM1192.63 170.689L1191.43 169.087C1189.29 170.687 1187.15 172.276 1185 173.854L1186.19 175.464L1187.38 177.075C1189.53 175.492 1191.68 173.897 1193.83 172.291L1192.63 170.689ZM1179.75 180.171L1178.57 178.552C1176.43 180.107 1174.29 181.65 1172.14 183.182L1173.3 184.81L1174.47 186.437C1176.62 184.899 1178.77 183.35 1180.92 181.79L1179.75 180.171ZM1166.86 189.381L1165.71 187.746C1163.55 189.266 1161.39 190.774 1159.23 192.271L1160.37 193.915L1161.51 195.559C1163.68 194.056 1165.84 192.542 1168.01 191.017L1166.86 189.381ZM1153.78 198.451L1152.65 196.799C1150.46 198.297 1148.26 199.784 1146.07 201.26L1147.18 202.919L1148.3 204.579C1150.5 203.098 1152.7 201.606 1154.91 200.103L1153.78 198.451ZM1140.59 207.321L1139.48 205.653C1137.29 207.107 1135.09 208.55 1132.9 209.982L1133.99 211.657L1135.08 213.332C1137.28 211.895 1139.49 210.447 1141.69 208.989L1140.59 207.321ZM1127.31 215.98L1126.22 214.297C1123.98 215.735 1121.74 217.162 1119.5 218.578L1120.57 220.269L1121.64 221.959C1123.89 220.538 1126.14 219.106 1128.39 217.663L1127.31 215.98ZM1113.83 224.491L1112.78 222.793C1110.53 224.187 1108.29 225.57 1106.05 226.943L1107.09 228.649L1108.14 230.355C1110.39 228.977 1112.64 227.589 1114.89 226.19L1113.83 224.491ZM1100.34 232.746L1099.31 231.033C1097.03 232.408 1094.74 233.773 1092.46 235.127L1093.48 236.847L1094.5 238.568C1096.79 237.209 1099.08 235.84 1101.37 234.46L1100.34 232.746ZM1086.61 240.884L1085.6 239.156C1083.32 240.488 1081.03 241.81 1078.74 243.122L1079.74 244.857L1080.73 246.592C1083.03 245.275 1085.32 243.949 1087.62 242.611L1086.61 240.884ZM1072.86 248.767L1071.88 247.025C1069.57 248.327 1067.26 249.619 1064.95 250.9L1065.93 252.649L1066.9 254.398C1069.21 253.112 1071.53 251.816 1073.85 250.509L1072.86 248.767ZM1058.94 256.495L1057.98 254.739C1055.65 256.009 1053.33 257.268 1051 258.517L1051.95 260.279L1052.89 262.042C1055.23 260.788 1057.56 259.524 1059.9 258.25L1058.94 256.495ZM1044.95 264.003L1044.02 262.235C1041.68 263.466 1039.35 264.687 1037.02 265.899L1037.94 267.674L1038.86 269.449C1041.2 268.233 1043.54 267.008 1045.88 265.772L1044.95 264.003ZM1030.84 271.328L1029.93 269.546C1027.57 270.752 1025.21 271.948 1022.84 273.135L1023.74 274.922L1024.64 276.709C1027.01 275.519 1029.38 274.319 1031.75 273.109L1030.84 271.328ZM1016.64 278.458L1015.75 276.665C1013.39 277.832 1011.02 278.99 1008.65 280.139L1009.53 281.938L1010.4 283.737C1012.77 282.585 1015.15 281.423 1017.52 280.252L1016.64 278.458ZM1002.35 285.391L1001.49 283.586C999.095 284.728 996.7 285.862 994.303 286.986L995.153 288.797L996.002 290.607C998.407 289.479 1000.81 288.342 1003.21 287.196L1002.35 285.391ZM987.95 292.147L987.112 290.331C984.714 291.437 982.315 292.534 979.916 293.623L980.742 295.444L981.568 297.266C983.975 296.174 986.382 295.073 988.787 293.963L987.95 292.147ZM973.499 298.701L972.685 296.875C970.261 297.955 967.836 299.028 965.411 300.091L966.214 301.923L967.017 303.754C969.45 302.688 971.883 301.612 974.314 300.528L973.499 298.701ZM958.924 305.092L958.132 303.256C955.705 304.302 953.277 305.34 950.848 306.37L951.629 308.211L952.409 310.052C954.846 309.02 957.281 307.978 959.716 306.929L958.924 305.092ZM944.319 311.284L943.55 309.438C941.101 310.459 938.65 311.472 936.199 312.477L936.958 314.328L937.717 316.178C940.175 315.17 942.632 314.154 945.089 313.13L944.319 311.284ZM929.592 317.323L928.844 315.468C926.391 316.457 923.937 317.438 921.482 318.412L922.22 320.271L922.957 322.13C925.419 321.154 927.88 320.17 930.34 319.178L929.592 317.323ZM914.842 323.173L914.115 321.31C911.645 322.274 909.174 323.23 906.702 324.179L907.419 326.046L908.136 327.913C910.615 326.962 913.092 326.003 915.569 325.036L914.842 323.173ZM899.986 328.876L899.28 327.005C896.805 327.94 894.328 328.868 891.851 329.789L892.548 331.663L893.245 333.538C895.729 332.615 898.211 331.685 900.693 330.747L899.986 328.876ZM885.104 334.408L884.417 332.53C881.93 333.44 879.442 334.343 876.953 335.239L877.631 337.121L878.308 339.003C880.804 338.104 883.298 337.199 885.791 336.287L885.104 334.408ZM870.142 339.797L869.473 337.912C866.979 338.797 864.484 339.675 861.987 340.546L862.646 342.434L863.306 344.323C865.808 343.449 868.31 342.569 870.81 341.682L870.142 339.797ZM855.145 345.034L854.494 343.143C851.992 344.003 849.489 344.858 846.984 345.707L847.626 347.601L848.268 349.495C850.778 348.644 853.287 347.788 855.795 346.925L855.145 345.034ZM840.089 350.136L839.456 348.239C836.945 349.077 834.434 349.91 831.921 350.737L832.546 352.636L833.172 354.536C835.69 353.707 838.207 352.873 840.723 352.033L840.089 350.136ZM824.997 355.104L824.379 353.201C821.863 354.018 819.345 354.829 816.827 355.635L817.436 357.54L818.046 359.445C820.57 358.637 823.092 357.824 825.614 357.006L824.997 355.104ZM809.86 359.948L809.258 358.041C806.734 358.838 804.209 359.63 801.683 360.417L802.278 362.326L802.873 364.236C805.404 363.447 807.934 362.654 810.463 361.855L809.86 359.948ZM794.688 364.676L794.1 362.764C791.571 363.542 789.041 364.315 786.509 365.084L787.091 366.998L787.672 368.912C790.208 368.141 792.742 367.367 795.276 366.587L794.688 364.676ZM779.483 369.295L778.908 367.379C776.373 368.14 773.837 368.896 771.3 369.649L771.868 371.566L772.437 373.483C774.978 372.73 777.519 371.972 780.058 371.21L779.483 369.295ZM764.246 373.813L763.684 371.894C761.144 372.639 758.602 373.38 756.06 374.117L756.617 376.038L757.174 377.959C759.72 377.22 762.265 376.478 764.809 375.733L764.246 373.813ZM748.984 378.239L748.432 376.317C745.889 377.047 743.344 377.773 740.798 378.496L741.344 380.42L741.89 382.344C744.44 381.62 746.988 380.892 749.536 380.162L748.984 378.239ZM733.696 382.581L733.155 380.656C730.606 381.373 728.056 382.087 725.504 382.798L726.041 384.725L726.578 386.651C729.133 385.939 731.686 385.225 734.238 384.507L733.696 382.581ZM718.387 386.848L717.855 384.921C715.305 385.625 712.753 386.327 710.2 387.026L710.729 388.955L711.257 390.884C713.813 390.184 716.367 389.481 718.92 388.776L718.387 386.848ZM703.062 391.048L702.537 389.118C699.982 389.812 697.425 390.505 694.866 391.195L695.387 393.126L695.909 395.057C698.469 394.366 701.029 393.673 703.587 392.978L703.062 391.048ZM687.715 395.19L687.198 393.258C684.643 393.943 682.087 394.626 679.529 395.307L680.044 397.24L680.559 399.173C683.118 398.491 685.676 397.807 688.233 397.122L687.715 395.19ZM672.364 399.28L671.852 397.347C669.291 398.025 666.729 398.702 664.166 399.378L664.676 401.312L665.186 403.246C667.75 402.57 670.314 401.892 672.876 401.214L672.364 399.28ZM656.989 403.333L656.481 401.398C653.924 402.069 651.365 402.739 648.804 403.408L649.31 405.343L649.815 407.278C652.377 406.609 654.937 405.939 657.496 405.267L656.989 403.333ZM641.622 407.348L641.118 405.413C638.555 406.08 635.99 406.747 633.424 407.414L633.926 409.349L634.429 411.285C636.996 410.619 639.562 409.952 642.126 409.284L641.622 407.348ZM626.226 411.346L625.725 409.41C623.166 410.073 620.606 410.735 618.045 411.397L618.545 413.334L619.046 415.27C621.608 414.608 624.169 413.945 626.728 413.282L626.226 411.346ZM610.855 415.321L610.355 413.384C607.791 414.046 605.225 414.709 602.657 415.371L603.157 417.308L603.656 419.244C606.224 418.582 608.79 417.919 611.355 417.257L610.855 415.321ZM595.449 419.297L594.95 417.36C592.391 418.02 589.83 418.681 587.268 419.343L587.768 421.279L588.268 423.216C590.83 422.554 593.39 421.894 595.949 421.233L595.449 419.297ZM580.081 423.264L579.58 421.328C577.016 421.99 574.451 422.654 571.883 423.318L572.384 425.254L572.885 427.191C575.452 426.526 578.017 425.863 580.581 425.201L580.081 423.264ZM564.679 427.25L564.177 425.314C561.617 425.978 559.054 426.644 556.491 427.31L556.994 429.246L557.497 431.182C560.06 430.515 562.621 429.85 565.181 429.186L564.679 427.25ZM549.315 431.246L548.81 429.31C546.248 429.978 543.685 430.648 541.12 431.32L541.626 433.254L542.132 435.189C544.696 434.518 547.259 433.849 549.819 433.181L549.315 431.246ZM533.928 435.273L533.42 433.339C530.858 434.013 528.295 434.688 525.73 435.365L526.24 437.299L526.751 439.233C529.314 438.556 531.876 437.881 534.437 437.208L533.928 435.273ZM518.574 439.328L518.061 437.395C515.503 438.074 512.943 438.755 510.382 439.439L510.898 441.371L511.414 443.303C513.973 442.62 516.531 441.94 519.087 441.261L518.574 439.328ZM503.213 443.428L502.694 441.497C500.131 442.185 497.567 442.876 495.001 443.569L495.522 445.5L496.044 447.431C498.608 446.738 501.171 446.048 503.731 445.36L503.213 443.428ZM487.874 447.574L487.349 445.644C484.797 446.339 482.243 447.036 479.688 447.736L480.217 449.665L480.745 451.594C483.298 450.894 485.85 450.198 488.399 449.504L487.874 447.574ZM472.549 451.775L472.017 449.847C469.458 450.554 466.898 451.264 464.336 451.978L464.872 453.904L465.409 455.831C467.968 455.118 470.526 454.409 473.082 453.703L472.549 451.775ZM457.232 456.041L456.691 454.116C454.147 454.83 451.601 455.548 449.053 456.27L449.598 458.194L450.143 460.119C452.688 459.398 455.231 458.68 457.773 457.967L457.232 456.041ZM441.954 460.37L441.405 458.447C438.853 459.177 436.301 459.91 433.746 460.648L434.301 462.569L434.856 464.491C437.407 463.754 439.956 463.022 442.504 462.293L441.954 460.37ZM426.663 464.785L426.103 462.865C423.568 463.604 421.032 464.347 418.494 465.094L419.059 467.013L419.624 468.931C422.158 468.185 424.691 467.443 427.223 466.705L426.663 464.785ZM411.445 469.267L410.874 467.35C408.333 468.106 405.79 468.867 403.245 469.632L403.821 471.548L404.397 473.463C406.938 472.699 409.477 471.939 412.015 471.184L411.445 469.267ZM396.187 473.856L395.605 471.943C393.081 472.71 390.555 473.483 388.028 474.26L388.616 476.171L389.203 478.083C391.727 477.307 394.249 476.536 396.769 475.77L396.187 473.856ZM381.037 478.515L380.443 476.605C377.914 477.392 375.382 478.184 372.849 478.981L373.449 480.888L374.05 482.796C376.578 482 379.106 481.21 381.631 480.425L381.037 478.515ZM365.851 483.293L365.245 481.387C363.976 481.791 362.707 482.196 361.437 482.603L362.047 484.508L362.657 486.412C363.925 486.007 365.192 485.602 366.458 485.199L365.851 483.293ZM362.047 484.508L361.437 482.603C360.147 483.016 358.861 483.432 357.579 483.849L358.198 485.751L358.817 487.653C360.094 487.237 361.374 486.824 362.657 486.412L362.047 484.508ZM350.569 488.276L349.931 486.38C347.397 487.232 344.878 488.093 342.375 488.963L343.031 490.852L343.687 492.741C346.178 491.876 348.685 491.02 351.206 490.171L350.569 488.276ZM335.583 493.479L334.909 491.596C332.435 492.482 329.977 493.376 327.534 494.279L328.227 496.155L328.92 498.031C331.351 497.133 333.797 496.243 336.258 495.361L335.583 493.479ZM320.732 498.968L320.02 497.099C317.506 498.057 315.008 499.025 312.527 500L313.259 501.862L313.991 503.723C316.459 502.752 318.944 501.79 321.445 500.837L320.732 498.968ZM305.883 504.807L305.132 502.953C302.683 503.946 300.25 504.948 297.833 505.958L298.605 507.803L299.376 509.648C301.779 508.644 304.199 507.648 306.635 506.66L305.883 504.807ZM291.365 510.874L290.574 509.037C288.091 510.107 285.626 511.185 283.177 512.272L283.989 514.1L284.801 515.928C287.235 514.847 289.687 513.775 292.156 512.711L291.365 510.874ZM276.717 517.378L275.885 515.559C273.472 516.664 271.076 517.777 268.697 518.898L269.55 520.707L270.403 522.516C272.768 521.401 275.15 520.295 277.55 519.196L276.717 517.378ZM262.486 524.088L261.612 522.289C259.19 523.465 256.785 524.651 254.399 525.845L255.295 527.633L256.19 529.422C258.561 528.235 260.951 527.056 263.36 525.887L262.486 524.088ZM248.163 531.257L247.246 529.479C244.881 530.7 242.533 531.928 240.205 533.166L241.143 534.932L242.082 536.698C244.396 535.468 246.729 534.247 249.08 533.034L248.163 531.257ZM234.234 538.658L233.274 536.904C230.925 538.189 228.596 539.483 226.286 540.785L227.269 542.528L228.251 544.27C230.546 542.975 232.86 541.69 235.194 540.413L234.234 538.658ZM220.318 546.507L219.313 544.778C217.008 546.117 214.723 547.466 212.458 548.822L213.485 550.538L214.513 552.254C216.763 550.906 219.033 549.567 221.323 548.236L220.318 546.507ZM206.771 554.619L205.721 552.917C203.445 554.321 201.189 555.734 198.954 557.155L200.027 558.843L201.1 560.531C203.32 559.119 205.56 557.716 207.821 556.321L206.771 554.619ZM193.299 563.187L192.203 561.514C189.973 562.975 187.765 564.445 185.578 565.924L186.698 567.581L187.817 569.238C189.989 567.77 192.182 566.311 194.396 564.859L193.299 563.187ZM180.221 572.024L179.078 570.383C176.877 571.916 174.697 573.458 172.539 575.008L173.706 576.633L174.873 578.257C177.015 576.718 179.179 575.187 181.364 573.665L180.221 572.024ZM167.248 581.345L166.057 579.738C163.919 581.323 161.803 582.916 159.709 584.517L160.924 586.106L162.138 587.695C164.216 586.106 166.317 584.525 168.439 582.952L167.248 581.345ZM154.732 590.914L153.494 589.343C151.373 591.016 149.276 592.697 147.202 594.386L148.465 595.937L149.728 597.488C151.785 595.812 153.866 594.144 155.971 592.484L154.732 590.914ZM142.326 601.018L141.038 599.488C139.007 601.196 137 602.912 135.016 604.636L136.327 606.146L137.639 607.656C139.607 605.946 141.598 604.244 143.613 602.549L142.326 601.018ZM130.402 611.378L129.066 609.89C127.06 611.69 125.079 613.499 123.123 615.315L124.483 616.78L125.844 618.246C127.784 616.446 129.748 614.652 131.738 612.866L130.402 611.378ZM118.714 622.227L117.329 620.784C115.422 622.615 113.54 624.452 111.684 626.296L113.093 627.715L114.502 629.134C116.343 627.306 118.209 625.484 120.099 623.67L118.714 622.227ZM107.463 633.405L106.029 632.011C104.16 633.934 102.317 635.863 100.501 637.799L101.959 639.168L103.418 640.536C105.218 638.617 107.045 636.705 108.897 634.799L107.463 633.405ZM96.6128 644.969L95.13 643.627C93.3382 645.606 91.5733 647.592 89.8352 649.584L91.3421 650.899L92.8491 652.214C94.5712 650.24 96.32 648.272 98.0955 646.311L96.6128 644.969ZM86.1429 656.97L84.6117 655.684C82.8981 657.723 81.2122 659.769 79.5537 661.82L81.1088 663.077L82.6639 664.335C84.3067 662.303 85.9767 660.277 87.6742 658.257L86.1429 656.97ZM76.2071 669.258L74.6283 668.03C72.9729 670.159 71.3466 672.293 69.7492 674.432L71.3517 675.629L72.9543 676.825C74.536 674.707 76.1465 672.594 77.7859 670.485L76.2071 669.258ZM66.6696 682.03L65.0438 680.865C63.5019 683.018 61.9889 685.175 60.5047 687.336L62.1534 688.468L63.8021 689.6C65.2713 687.461 66.769 685.326 68.2955 683.195L66.6696 682.03ZM57.6821 695.125L56.0104 694.027C54.5427 696.261 53.1053 698.5 51.6979 700.742L53.3919 701.806L55.086 702.869C56.4786 700.65 57.9011 698.434 59.3537 696.223L57.6821 695.125ZM49.2819 708.508L47.5662 707.48C46.179 709.796 44.8235 712.116 43.4996 714.438L45.2371 715.428L46.9747 716.419C48.2843 714.122 49.6252 711.827 50.9977 709.535L49.2819 708.508ZM41.3793 722.369L39.6207 721.417C38.3588 723.746 37.1283 726.079 35.9292 728.413L37.7081 729.327L39.487 730.241C40.6729 727.932 41.8898 725.626 43.1378 723.322L41.3793 722.369ZM34.1262 736.495L32.3271 735.622C31.1594 738.027 30.0245 740.433 28.9223 742.84L30.7408 743.673L32.5592 744.506C33.6488 742.126 34.7707 739.747 35.9253 737.369L34.1262 736.495ZM27.54 750.88L25.7029 750.089C24.637 752.566 23.6054 755.043 22.6079 757.519L24.4631 758.267L26.3183 759.014C27.304 756.566 28.3235 754.118 29.377 751.671L27.54 750.88ZM21.5899 765.652L19.7175 764.949C18.7802 767.446 17.8773 769.942 17.0086 772.437L18.8974 773.094L20.7862 773.752C21.6443 771.288 22.5362 768.822 23.4623 766.355L21.5899 765.652ZM16.3652 780.666L14.4607 780.055C13.6468 782.593 12.8681 785.128 12.1244 787.661L14.0434 788.225L15.9624 788.788C16.6968 786.287 17.4657 783.783 18.2696 781.277L16.3652 780.666ZM11.9006 795.881L9.96796 795.366C9.2776 797.959 8.62385 800.549 8.00647 803.134L9.95179 803.599L11.8971 804.063C12.5065 801.511 13.1518 798.955 13.8333 796.395L11.9006 795.881ZM8.2199 811.292L6.26317 810.878C5.70582 813.514 5.18624 816.145 4.70416 818.77L6.67126 819.131L8.63836 819.492C9.11397 816.902 9.62663 814.307 10.1766 811.706L8.2199 811.292ZM5.34351 826.952L3.36737 826.644C2.95623 829.282 2.58304 831.914 2.24752 834.538L4.23137 834.792L6.21522 835.045C6.54608 832.457 6.91413 829.862 7.31966 827.26L5.34351 826.952ZM3.33088 842.716L1.34069 842.518C1.07714 845.17 0.85224 847.814 0.665679 850.448L2.66068 850.59L4.65569 850.731C4.83957 848.134 5.06126 845.528 5.32108 842.914L3.33088 842.716ZM2.21313 858.547L0.21486 858.464C0.103511 861.139 0.031993 863.805 -1.0252e-05 866.459L1.99984 866.483L3.9997 866.507C4.03123 863.893 4.10168 861.267 4.2114 858.63L2.21313 858.547ZM2.02278 874.401L0.0230995 874.437C0.0713563 877.126 0.160574 879.803 0.290413 882.466L2.28804 882.368L4.28567 882.271C4.15784 879.649 4.06998 877.014 4.02246 874.365L2.02278 874.401ZM2.7951 890.254L0.801463 890.413C1.01603 893.096 1.27235 895.763 1.57007 898.415L3.55758 898.192L5.54509 897.969C5.25216 895.36 4.99991 892.735 4.78873 890.094L2.7951 890.254ZM4.5697 906.057L2.59047 906.345C2.97564 908.996 3.40288 911.63 3.87184 914.246L5.84045 913.893L7.80906 913.54C7.34795 910.968 6.92777 908.377 6.54892 905.77L4.5697 906.057ZM7.37595 921.697L5.42043 922.116C5.98044 924.727 6.58287 927.318 7.22733 929.889L9.16728 929.402L11.1072 928.916C10.474 926.39 9.88194 923.844 9.33148 921.277L7.37595 921.697ZM11.242 937.099L9.32047 937.654C10.0613 940.22 10.845 942.763 11.6713 945.283L13.5717 944.66L15.4722 944.037C14.6608 941.563 13.8912 939.065 13.1635 936.544L11.242 937.099ZM16.1922 952.182L14.316 952.875C15.2432 955.386 16.2139 957.872 17.2278 960.33L19.0767 959.568L20.9257 958.805C19.931 956.393 18.9784 953.954 18.0684 951.489L16.1922 952.182ZM22.2451 966.854L20.4266 967.687C21.5427 970.125 22.7026 972.534 23.906 974.912L25.6907 974.01L27.4753 973.107C26.2955 970.775 25.1581 968.413 24.0636 966.022L22.2451 966.854ZM29.4108 981.016L27.6634 981.989C28.9686 984.333 30.3177 986.646 31.7105 988.925L33.4171 987.882L35.1237 986.839C33.7593 984.606 32.4373 982.341 31.1582 980.043L29.4108 981.016ZM37.6882 994.56L36.0259 995.672C37.5178 997.902 39.0534 1000.1 40.6324 1002.26L42.2467 1001.08L43.861 999.894C42.3152 997.781 40.8115 995.632 39.3505 993.448L37.6882 994.56ZM47.0619 1007.37L45.4992 1008.62C47.1719 1010.72 48.8879 1012.77 50.6467 1014.79L52.1542 1013.48L53.6617 1012.16C51.9409 1010.19 50.2618 1008.18 48.6247 1006.13L47.0619 1007.37ZM57.4995 1019.34L56.0506 1020.72C57.8947 1022.66 59.7811 1024.56 61.7092 1026.41L63.0961 1024.97L64.483 1023.53C62.5973 1021.72 60.7523 1019.86 58.9484 1017.97L57.4995 1019.34ZM68.9401 1030.35L67.6185 1031.86C69.6234 1033.62 71.6693 1035.34 73.7557 1037.02L75.0092 1035.46L76.2628 1033.9C74.2228 1032.26 72.2223 1030.58 70.2618 1028.85L68.9401 1030.35ZM81.3087 1040.3L80.1261 1041.91C81.208 1042.71 82.2999 1043.49 83.4016 1044.26L84.5478 1042.62L85.6939 1040.98C84.6167 1040.23 83.5491 1039.46 82.4913 1038.69L81.3087 1040.3ZM84.5478 1042.62L83.4016 1044.26C84.5062 1045.03 85.6121 1045.8 86.7191 1046.55L87.8467 1044.9L88.9744 1043.25C87.8798 1042.5 86.7863 1041.75 85.6939 1040.98L84.5478 1042.62ZM94.4652 1049.31L93.3752 1050.99C95.634 1052.46 97.8975 1053.89 100.165 1055.29L101.216 1053.59L102.267 1051.89C100.026 1050.5 97.7883 1049.09 95.5552 1047.63L94.4652 1049.31ZM108.044 1057.7L107.034 1059.42C109.348 1060.78 111.667 1062.1 113.99 1063.39L114.959 1061.64L115.929 1059.89C113.634 1058.62 111.342 1057.31 109.055 1055.97L108.044 1057.7ZM121.993 1065.42L121.066 1067.2C123.445 1068.44 125.829 1069.65 128.216 1070.83L129.1 1069.03L129.983 1067.24C127.625 1066.08 125.27 1064.88 122.919 1063.65L121.993 1065.42ZM136.282 1072.46L135.443 1074.27C137.886 1075.4 140.332 1076.49 142.782 1077.55L143.574 1075.71L144.367 1073.88C141.949 1072.83 139.533 1071.75 137.121 1070.64L136.282 1072.46ZM150.933 1078.78L150.187 1080.64C152.675 1081.64 155.165 1082.6 157.659 1083.53L158.358 1081.66L159.057 1079.79C156.595 1078.87 154.136 1077.91 151.68 1076.93L150.933 1078.78ZM165.867 1084.35L165.216 1086.24C167.755 1087.12 170.296 1087.96 172.839 1088.76L173.442 1086.85L174.044 1084.95C171.533 1084.15 169.025 1083.32 166.518 1082.46L165.867 1084.35ZM181.07 1089.15L180.517 1091.08C183.093 1091.82 185.671 1092.52 188.25 1093.2L188.754 1091.26L189.258 1089.32C186.712 1088.66 184.167 1087.96 181.623 1087.23L181.07 1089.15ZM196.501 1093.17L196.047 1095.12C198.658 1095.73 201.271 1096.3 203.884 1096.84L204.288 1094.88L204.692 1092.92C202.112 1092.39 199.533 1091.82 196.955 1091.22L196.501 1093.17ZM212.112 1096.39L211.758 1098.36C214.395 1098.84 217.033 1099.28 219.671 1099.68L219.976 1097.7L220.28 1095.73C217.675 1095.33 215.07 1094.89 212.466 1094.42L212.112 1096.39ZM227.873 1098.82L227.618 1100.8C230.275 1101.14 232.931 1101.45 235.587 1101.72L235.792 1099.74L235.997 1097.75C233.374 1097.48 230.751 1097.17 228.128 1096.84L227.873 1098.82ZM243.729 1100.46L243.573 1102.45C246.242 1102.66 248.911 1102.83 251.578 1102.98L251.685 1100.98L251.793 1098.98C249.158 1098.84 246.522 1098.67 243.885 1098.46L243.729 1100.46ZM259.652 1101.31L259.593 1103.31C262.267 1103.39 264.94 1103.44 267.611 1103.46L267.623 1101.46L267.635 1099.46C264.996 1099.44 262.354 1099.39 259.712 1099.31L259.652 1101.31ZM275.594 1101.41L275.629 1103.41C278.303 1103.36 280.975 1103.29 283.645 1103.18L283.564 1101.18L283.484 1099.18C280.844 1099.29 278.203 1099.36 275.56 1099.41L275.594 1101.41ZM291.527 1100.77L291.653 1102.76C294.321 1102.6 296.986 1102.4 299.648 1102.17L299.477 1100.18L299.307 1098.18C296.674 1098.41 294.039 1098.61 291.401 1098.77L291.527 1100.77ZM307.413 1099.41L307.626 1101.4C310.284 1101.11 312.937 1100.8 315.587 1100.46L315.33 1098.47L315.074 1096.49C312.452 1096.83 309.827 1097.14 307.199 1097.42L307.413 1099.41ZM323.226 1097.37L323.524 1099.34C326.166 1098.95 328.803 1098.52 331.436 1098.07L331.097 1096.1L330.758 1094.13C328.152 1094.57 325.542 1095 322.928 1095.39L323.226 1097.37ZM338.94 1094.67L339.319 1096.63C341.941 1096.12 344.559 1095.59 347.171 1095.03L346.753 1093.08L346.335 1091.12C343.749 1091.67 341.158 1092.2 338.561 1092.7L338.94 1094.67ZM354.533 1091.34L354.989 1093.28C357.589 1092.68 360.184 1092.04 362.772 1091.38L362.279 1089.45L361.786 1087.51C359.222 1088.16 356.653 1088.79 354.078 1089.39L354.533 1091.34ZM369.987 1087.41L370.516 1089.34C373.091 1088.63 375.659 1087.9 378.221 1087.15L377.657 1085.23L377.092 1083.31C374.554 1084.06 372.009 1084.78 369.458 1085.48L369.987 1087.41ZM385.285 1082.91L385.884 1084.82C388.431 1084.02 390.971 1083.2 393.503 1082.36L392.871 1080.46L392.239 1078.56C389.729 1079.4 387.211 1080.21 384.687 1081L385.285 1082.91ZM400.414 1077.88L401.078 1079.76C403.596 1078.87 406.106 1077.97 408.607 1077.04L407.911 1075.16L407.214 1073.29C404.734 1074.21 402.245 1075.11 399.749 1075.99L400.414 1077.88ZM415.361 1072.32L416.089 1074.19C417.332 1073.7 418.572 1073.21 419.811 1072.71L419.068 1070.86L418.325 1069C417.097 1069.49 415.866 1069.98 414.634 1070.46L415.361 1072.32ZM419.068 1070.86L419.811 1072.71C421.07 1072.21 422.325 1071.71 423.578 1071.21L422.84 1069.35L422.101 1067.5C420.846 1067.99 419.587 1068.5 418.325 1069L419.068 1070.86ZM430.329 1066.4L431.057 1068.27C433.539 1067.29 436.008 1066.34 438.466 1065.39L437.747 1063.52L437.028 1061.66C434.564 1062.61 432.088 1063.57 429.6 1064.54L430.329 1066.4ZM445.094 1060.71L445.803 1062.58C448.237 1061.66 450.659 1060.75 453.07 1059.85L452.371 1057.98L451.672 1056.1C449.254 1057.01 446.826 1057.92 444.385 1058.84L445.094 1060.71ZM459.929 1055.18L460.617 1057.06C463.136 1056.14 465.642 1055.23 468.135 1054.33L467.457 1052.45L466.78 1050.57C464.28 1051.47 461.767 1052.38 459.241 1053.31L459.929 1055.18ZM474.908 1049.79L475.574 1051.68C478.04 1050.81 480.494 1049.95 482.935 1049.1L482.281 1047.21L481.626 1045.33C479.178 1046.17 476.716 1047.03 474.242 1047.91L474.908 1049.79ZM489.786 1044.64L490.429 1046.54C492.981 1045.67 495.519 1044.82 498.042 1043.98L497.413 1042.09L496.784 1040.19C494.251 1041.03 491.705 1041.88 489.144 1042.75L489.786 1044.64ZM504.954 1039.61L505.57 1041.52C508.065 1040.71 510.546 1039.91 513.013 1039.14L512.41 1037.23L511.807 1035.32C509.331 1036.1 506.842 1036.9 504.338 1037.71L504.954 1039.61ZM519.938 1034.88L520.527 1036.79C523.108 1035.99 525.672 1035.21 528.221 1034.45L527.647 1032.53L527.072 1030.62C524.514 1031.39 521.939 1032.17 519.349 1032.97L519.938 1034.88ZM535.26 1030.29L535.819 1032.21C538.336 1031.47 540.838 1030.76 543.323 1030.05L542.78 1028.13L542.237 1026.21C539.741 1026.91 537.229 1027.63 534.701 1028.37L535.26 1030.29ZM550.409 1026.01L550.936 1027.94C553.537 1027.23 556.12 1026.54 558.685 1025.86L558.176 1023.93L557.666 1021.99C555.089 1022.67 552.494 1023.37 549.882 1024.08L550.409 1026.01ZM565.838 1021.95L566.33 1023.89C568.861 1023.24 571.374 1022.62 573.87 1022.01L573.397 1020.07L572.924 1018.12C570.415 1018.74 567.89 1019.36 565.347 1020.01L565.838 1021.95ZM581.202 1018.21L581.655 1020.16C584.266 1019.55 586.857 1018.96 589.429 1018.39L588.996 1016.44L588.563 1014.49C585.977 1015.06 583.372 1015.65 580.748 1016.26L581.202 1018.21ZM596.675 1014.78L597.087 1016.74C599.667 1016.19 602.227 1015.67 604.767 1015.17L604.378 1013.2L603.989 1011.24C601.433 1011.75 598.858 1012.28 596.264 1012.82L596.675 1014.78ZM612.287 1011.68L612.652 1013.65C615.259 1013.17 617.845 1012.7 620.409 1012.26L620.068 1010.29L619.727 1008.32C617.147 1008.76 614.545 1009.23 611.922 1009.72L612.287 1011.68ZM627.734 1009.02L628.049 1010.99C630.73 1010.56 633.387 1010.16 636.02 1009.78L635.733 1007.8L635.445 1005.82C632.793 1006.2 630.118 1006.61 627.419 1007.04L627.734 1009.02ZM643.59 1006.71L643.848 1008.7C646.434 1008.36 648.996 1008.05 651.534 1007.75L651.306 1005.77L651.078 1003.78C648.519 1004.08 645.937 1004.39 643.332 1004.73L643.59 1006.71ZM659.334 1004.91L659.53 1006.9C662.178 1006.64 664.799 1006.41 667.393 1006.2L667.232 1004.2L667.07 1002.21C664.452 1002.42 661.809 1002.66 659.139 1002.92L659.334 1004.91ZM674.998 1003.64L675.125 1005.64C677.829 1005.47 680.504 1005.32 683.15 1005.21L683.063 1003.21L682.975 1001.21C680.303 1001.33 677.602 1001.47 674.872 1001.65L674.998 1003.64ZM690.952 1002.94L691 1004.94C693.642 1004.88 696.253 1004.85 698.835 1004.84L698.83 1002.84L698.826 1000.84C696.215 1000.85 693.575 1000.88 690.905 1000.94L690.952 1002.94ZM706.844 1002.91L706.802 1004.91C709.426 1004.97 712.017 1005.05 714.575 1005.17L714.664 1003.17L714.753 1001.17C712.162 1001.05 709.54 1000.97 706.885 1000.91L706.844 1002.91ZM722.658 1003.63L722.517 1005.62C725.164 1005.81 727.774 1006.03 730.349 1006.28L730.544 1004.29L730.74 1002.3C728.128 1002.04 725.481 1001.82 722.799 1001.63L722.658 1003.63ZM738.387 1005.17L738.134 1007.16C740.787 1007.5 743.401 1007.87 745.974 1008.28L746.289 1006.31L746.604 1004.33C743.988 1003.91 741.334 1003.53 738.64 1003.19L738.387 1005.17ZM753.999 1007.66L753.62 1009.63C756.258 1010.13 758.851 1010.68 761.402 1011.27L761.85 1009.32L762.299 1007.37C759.701 1006.77 757.061 1006.22 754.378 1005.7L753.999 1007.66ZM769.443 1011.21L768.923 1013.15C771.512 1013.84 774.053 1014.58 776.548 1015.36L777.145 1013.45L777.742 1011.54C775.196 1010.75 772.603 1009.99 769.963 1009.28L769.443 1011.21ZM784.585 1015.95L783.909 1017.83C786.42 1018.73 788.88 1019.68 791.291 1020.67L792.051 1018.82L792.81 1016.97C790.343 1015.96 787.827 1014.99 785.261 1014.07L784.585 1015.95ZM799.245 1021.97L798.401 1023.78C800.811 1024.91 803.168 1026.07 805.472 1027.29L806.405 1025.52L807.338 1023.75C804.975 1022.51 802.559 1021.31 800.089 1020.16L799.245 1021.97ZM813.277 1029.37L812.256 1031.09C814.528 1032.44 816.745 1033.83 818.907 1035.28L820.018 1033.62L821.129 1031.95C818.908 1030.47 816.631 1029.03 814.298 1027.65L813.277 1029.37ZM826.469 1038.18L825.27 1039.78C827.371 1041.36 829.414 1042.98 831.403 1044.65L832.689 1043.11L833.974 1041.58C831.929 1039.87 829.828 1038.2 827.669 1036.58L826.469 1038.18ZM838.612 1048.37L837.242 1049.83C839.146 1051.62 840.993 1053.45 842.785 1055.34L844.234 1053.96L845.682 1052.58C843.839 1050.64 841.939 1048.75 839.981 1046.91L838.612 1048.37ZM849.538 1059.85L848.015 1061.14C849.705 1063.13 851.34 1065.16 852.921 1067.23L854.512 1066.02L856.103 1064.81C854.479 1062.68 852.798 1060.59 851.06 1058.55L849.538 1059.85ZM859.14 1072.45L857.486 1073.57C858.951 1075.72 860.362 1077.92 861.722 1080.16L863.431 1079.12L865.14 1078.08C863.745 1075.78 862.296 1073.53 860.793 1071.32L859.14 1072.45ZM867.375 1085.99L865.616 1086.94C866.853 1089.23 868.04 1091.55 869.178 1093.91L870.98 1093.04L872.782 1092.18C871.617 1089.76 870.401 1087.38 869.133 1085.04L867.375 1085.99ZM874.262 1100.27L872.422 1101.06C873.44 1103.44 874.412 1105.86 875.338 1108.32L877.209 1107.61L879.081 1106.91C878.134 1104.4 877.141 1101.93 876.101 1099.49L874.262 1100.27ZM879.866 1115.12L877.968 1115.75C878.781 1118.2 879.553 1120.69 880.283 1123.21L882.204 1122.66L884.125 1122.1C883.381 1119.53 882.594 1116.99 881.765 1114.49L879.866 1115.12ZM884.283 1130.36L882.343 1130.84C882.971 1133.35 883.56 1135.89 884.112 1138.45L886.067 1138.03L888.023 1137.61C887.462 1135 886.862 1132.42 886.223 1129.87L884.283 1130.36ZM887.618 1145.85L885.65 1146.21C886.113 1148.76 886.54 1151.33 886.933 1153.93L888.91 1153.63L890.888 1153.33C890.49 1150.69 890.056 1148.08 889.586 1145.5L887.618 1145.85ZM889.989 1161.53L888.003 1161.78C888.317 1164.35 888.599 1166.94 888.848 1169.56L890.839 1169.37L892.83 1169.18C892.577 1166.53 892.292 1163.9 891.974 1161.29L889.989 1161.53ZM891.496 1177.33L889.501 1177.47C889.682 1180.05 889.833 1182.65 889.955 1185.28L891.952 1185.18L893.95 1185.09C893.827 1182.44 893.674 1179.8 893.491 1177.19L891.496 1177.33ZM892.232 1193.16L890.233 1193.21C890.295 1195.8 890.329 1198.42 890.337 1201.05L892.337 1201.04L894.337 1201.03C894.329 1198.38 894.294 1195.74 894.232 1193.11L892.232 1193.16ZM892.281 1209L890.281 1208.97C890.236 1211.57 890.167 1214.19 890.072 1216.83L892.071 1216.9L894.069 1216.97C894.165 1214.31 894.235 1211.67 894.28 1209.04L892.281 1209ZM891.714 1224.84L889.717 1224.73C889.645 1226.05 889.568 1227.38 889.484 1228.71L891.481 1228.84L893.477 1228.96C893.561 1227.62 893.639 1226.28 893.711 1224.94L891.714 1224.84ZM891.481 1228.84L889.484 1228.71C889.398 1230.1 889.319 1231.47 889.247 1232.85L891.245 1232.95L893.242 1233.06C893.313 1231.7 893.391 1230.33 893.477 1228.96L891.481 1228.84ZM890.91 1241.11L888.911 1241.05C888.83 1243.77 888.778 1246.47 888.757 1249.15L890.757 1249.16L892.756 1249.18C892.778 1246.53 892.829 1243.86 892.909 1241.17L890.91 1241.11ZM890.781 1257.12L888.781 1257.15C888.819 1259.82 888.887 1262.47 888.984 1265.11L890.983 1265.04L892.981 1264.96C892.885 1262.36 892.818 1259.73 892.78 1257.09L890.781 1257.12ZM891.382 1273.21L889.386 1273.33C889.551 1276.05 889.749 1278.75 889.978 1281.44L891.97 1281.27L893.963 1281.1C893.737 1278.44 893.542 1275.77 893.378 1273.09L891.382 1273.21ZM892.745 1289.21L890.757 1289.43C891.049 1292.08 891.371 1294.71 891.723 1297.32L893.705 1297.05L895.687 1296.78C895.339 1294.21 895.021 1291.61 894.733 1288.99L892.745 1289.21ZM894.903 1305.13L892.929 1305.45C893.363 1308.14 893.831 1310.81 894.331 1313.46L896.296 1313.09L898.261 1312.72C897.768 1310.11 897.307 1307.47 896.878 1304.82L894.903 1305.13ZM897.88 1320.92L895.925 1321.35C896.49 1323.96 897.088 1326.56 897.716 1329.13L899.659 1328.66L901.602 1328.18C900.982 1325.64 900.393 1323.08 899.835 1320.5L897.88 1320.92ZM901.7 1336.54L899.771 1337.07C900.489 1339.69 901.24 1342.29 902.023 1344.87L903.936 1344.29L905.85 1343.71C905.078 1341.17 904.337 1338.6 903.629 1336.01L901.7 1336.54ZM906.365 1351.9L904.469 1352.53C905.325 1355.09 906.213 1357.62 907.133 1360.13L909.01 1359.44L910.888 1358.75C909.981 1356.28 909.106 1353.78 908.262 1351.26L906.365 1351.9ZM911.911 1367.01L910.054 1367.76C911.06 1370.27 912.099 1372.77 913.169 1375.23L915.004 1374.44L916.838 1373.64C915.783 1371.21 914.76 1368.75 913.768 1366.27L911.911 1367.01ZM918.285 1381.71L916.474 1382.56C917.626 1385.02 918.811 1387.45 920.026 1389.85L921.811 1388.95L923.596 1388.05C922.398 1385.68 921.231 1383.28 920.096 1380.86L918.285 1381.71ZM925.558 1396.1L923.8 1397.06C925.09 1399.43 926.41 1401.78 927.761 1404.1L929.489 1403.09L931.218 1402.09C929.887 1399.8 928.586 1397.49 927.316 1395.15L925.558 1396.1ZM933.609 1409.94L931.91 1410.99C933.349 1413.31 934.818 1415.59 936.317 1417.85L937.983 1416.74L939.649 1415.63C938.172 1413.41 936.724 1411.16 935.307 1408.88L933.609 1409.94ZM942.534 1423.38L940.902 1424.53C942.46 1426.73 944.047 1428.9 945.662 1431.05L947.259 1429.84L948.856 1428.64C947.265 1426.53 945.702 1424.39 944.167 1422.22L942.534 1423.38ZM952.194 1436.19L950.633 1437.44C952.327 1439.56 954.05 1441.65 955.8 1443.7L957.323 1442.41L958.847 1441.11C957.122 1439.08 955.424 1437.03 953.755 1434.94L952.194 1436.19ZM962.615 1448.45L961.13 1449.79C962.936 1451.79 964.769 1453.76 966.627 1455.7L968.073 1454.32L969.518 1452.94C967.686 1451.02 965.88 1449.08 964.1 1447.11L962.615 1448.45ZM973.729 1460.06L972.324 1461.49C974.249 1463.39 976.198 1465.25 978.172 1467.09L979.535 1465.63L980.898 1464.16C978.952 1462.35 977.03 1460.51 975.133 1458.64L973.729 1460.06ZM985.485 1471.01L984.165 1472.51C986.195 1474.3 988.249 1476.05 990.325 1477.78L991.603 1476.24L992.88 1474.7C990.833 1473 988.808 1471.27 986.806 1469.51L985.485 1471.01ZM997.865 1481.29L996.632 1482.86C998.756 1484.53 1000.9 1486.16 1003.07 1487.76L1004.26 1486.16L1005.45 1484.55C1003.31 1482.97 1001.19 1481.36 999.099 1479.72L997.865 1481.29ZM1010.78 1490.84L1009.64 1492.49C1011.86 1494.03 1014.09 1495.55 1016.35 1497.03L1017.45 1495.36L1018.55 1493.69C1016.32 1492.22 1014.11 1490.73 1011.93 1489.2L1010.78 1490.84ZM1024.22 1499.68L1023.17 1501.38C1025.46 1502.8 1027.77 1504.19 1030.1 1505.55L1031.11 1503.82L1032.12 1502.09C1029.82 1500.76 1027.54 1499.38 1025.28 1497.98L1024.22 1499.68ZM1038.11 1507.78L1037.15 1509.53C1039.52 1510.83 1041.9 1512.09 1044.3 1513.33L1045.22 1511.55L1046.13 1509.77C1043.76 1508.55 1041.41 1507.3 1039.07 1506.03L1038.11 1507.78ZM1052.42 1515.13L1051.55 1516.93C1053.98 1518.1 1056.43 1519.24 1058.89 1520.34L1059.71 1518.52L1060.53 1516.69C1058.1 1515.6 1055.68 1514.48 1053.28 1513.32L1052.42 1515.13ZM1067.09 1521.72L1066.31 1523.56C1068.8 1524.6 1071.3 1525.61 1073.82 1526.59L1074.54 1524.72L1075.27 1522.86C1072.78 1521.9 1070.31 1520.9 1067.86 1519.87L1067.09 1521.72ZM1082.07 1527.54L1081.4 1529.42C1083.93 1530.33 1086.49 1531.21 1089.05 1532.06L1089.68 1530.16L1090.3 1528.26C1087.77 1527.43 1085.26 1526.56 1082.75 1525.66L1082.07 1527.54ZM1097.34 1532.59L1096.76 1534.51C1099.34 1535.29 1101.93 1536.04 1104.53 1536.75L1105.06 1534.83L1105.59 1532.9C1103.03 1532.19 1100.47 1531.45 1097.92 1530.68L1097.34 1532.59ZM1112.84 1536.87L1112.36 1538.81C1114.98 1539.46 1117.6 1540.08 1120.24 1540.66L1120.67 1538.71L1121.1 1536.76C1118.5 1536.18 1115.91 1535.57 1113.33 1534.93L1112.84 1536.87ZM1128.54 1540.36L1128.15 1542.32C1130.8 1542.84 1133.45 1543.33 1136.11 1543.78L1136.45 1541.81L1136.78 1539.84C1134.16 1539.39 1131.54 1538.91 1128.92 1538.39L1128.54 1540.36ZM1144.39 1543.06L1144.11 1545.04C1146.78 1545.42 1149.45 1545.78 1152.13 1546.1L1152.37 1544.11L1152.6 1542.12C1149.96 1541.81 1147.32 1541.46 1144.68 1541.08L1144.39 1543.06ZM1160.36 1544.96L1160.17 1546.95C1162.86 1547.2 1165.55 1547.42 1168.24 1547.61L1168.38 1545.61L1168.51 1543.62C1165.86 1543.43 1163.2 1543.22 1160.54 1542.97L1160.36 1544.96ZM1176.41 1546.06L1176.32 1548.06C1179.01 1548.17 1181.71 1548.25 1184.4 1548.3L1184.44 1546.3L1184.47 1544.3C1181.81 1544.26 1179.15 1544.17 1176.49 1544.06L1176.41 1546.06ZM1192.48 1546.34L1192.5 1548.34C1195.2 1548.32 1197.9 1548.26 1200.59 1548.17L1200.53 1546.17L1200.46 1544.17C1197.8 1544.26 1195.13 1544.32 1192.47 1544.34L1192.48 1546.34ZM1208.55 1545.8L1208.67 1547.8C1211.37 1547.63 1214.06 1547.44 1216.74 1547.21L1216.57 1545.22L1216.4 1543.22C1213.75 1543.45 1211.09 1543.64 1208.43 1543.8L1208.55 1545.8ZM1224.58 1544.42L1224.8 1546.41C1227.49 1546.11 1230.16 1545.77 1232.83 1545.4L1232.56 1543.42L1232.28 1541.44C1229.64 1541.8 1227 1542.14 1224.36 1542.43L1224.58 1544.42ZM1240.5 1542.2L1240.83 1544.17C1243.49 1543.73 1246.15 1543.25 1248.8 1542.73L1248.42 1540.77L1248.03 1538.8C1245.42 1539.31 1242.8 1539.79 1240.17 1540.23L1240.5 1542.2ZM1256.29 1539.12L1256.72 1541.07C1259.36 1540.48 1261.98 1539.86 1264.59 1539.2L1264.1 1537.26L1263.61 1535.32C1261.03 1535.97 1258.45 1536.59 1255.85 1537.17L1256.29 1539.12ZM1271.87 1535.18L1272.42 1537.1C1275.02 1536.37 1277.6 1535.59 1280.18 1534.79L1279.58 1532.88L1278.98 1530.97C1276.44 1531.77 1273.89 1532.53 1271.33 1533.25L1271.87 1535.18ZM1287.21 1530.36L1287.87 1532.25C1290.42 1531.37 1292.96 1530.45 1295.48 1529.49L1294.77 1527.62L1294.06 1525.75C1291.57 1526.69 1289.07 1527.6 1286.56 1528.47L1287.21 1530.36ZM1302.25 1524.66L1303.01 1526.51C1305.51 1525.48 1307.99 1524.41 1310.45 1523.31L1309.63 1521.48L1308.82 1519.66C1306.39 1520.75 1303.94 1521.8 1301.48 1522.82L1302.25 1524.66ZM1316.92 1518.09L1317.79 1519.89C1320.22 1518.71 1322.63 1517.49 1325.02 1516.24L1324.09 1514.47L1323.17 1512.7C1320.81 1513.93 1318.44 1515.13 1316.05 1516.29L1316.92 1518.09ZM1331.16 1510.63L1332.14 1512.38C1334.5 1511.05 1336.83 1509.68 1339.15 1508.28L1338.11 1506.57L1337.08 1504.86C1334.8 1506.24 1332.5 1507.58 1330.18 1508.89L1331.16 1510.63ZM1344.91 1502.31L1346 1503.99C1348.26 1502.52 1350.5 1501.02 1352.72 1499.47L1351.58 1497.83L1350.44 1496.19C1348.26 1497.71 1346.05 1499.19 1343.82 1500.63L1344.91 1502.31ZM1358.12 1493.13L1359.32 1494.73C1361.48 1493.13 1363.62 1491.48 1365.73 1489.8L1364.49 1488.24L1363.24 1486.67C1361.16 1488.32 1359.06 1489.94 1356.93 1491.52L1358.12 1493.13ZM1370.69 1483.14L1371.98 1484.67C1374.04 1482.92 1376.08 1481.14 1378.09 1479.31L1376.74 1477.83L1375.4 1476.35C1373.42 1478.14 1371.42 1479.9 1369.39 1481.62L1370.69 1483.14ZM1382.62 1472.33L1384.01 1473.76C1385.94 1471.9 1387.84 1470 1389.72 1468.06L1388.28 1466.67L1386.84 1465.28C1385 1467.19 1383.13 1469.06 1381.23 1470.89L1382.62 1472.33ZM1393.78 1460.81L1395.26 1462.15C1397.08 1460.14 1398.88 1458.1 1400.65 1456.02L1399.12 1454.73L1397.6 1453.43C1395.86 1455.48 1394.09 1457.49 1392.3 1459.46L1393.78 1460.81ZM1404.19 1448.56L1405.76 1449.8C1407.43 1447.7 1409.07 1445.57 1410.69 1443.4L1409.08 1442.21L1407.48 1441.01C1405.89 1443.15 1404.27 1445.25 1402.63 1447.31L1404.19 1448.56ZM1413.8 1435.65L1415.45 1436.79C1416.99 1434.58 1418.5 1432.34 1419.98 1430.06L1418.3 1428.97L1416.63 1427.88C1415.17 1430.12 1413.68 1432.33 1412.16 1434.51L1413.8 1435.65ZM1422.54 1422.22L1424.25 1423.26C1425.65 1420.96 1427.01 1418.63 1428.35 1416.26L1426.61 1415.28L1424.87 1414.29C1423.55 1416.62 1422.2 1418.92 1420.83 1421.18L1422.54 1422.22ZM1430.5 1408.14L1432.27 1409.07C1433.51 1406.72 1434.72 1404.33 1435.9 1401.91L1434.1 1401.03L1432.3 1400.15C1431.14 1402.54 1429.95 1404.89 1428.73 1407.21L1430.5 1408.14ZM1437.5 1393.81L1439.32 1394.63C1440.43 1392.18 1441.51 1389.69 1442.56 1387.17L1440.72 1386.4L1438.87 1385.63C1437.83 1388.11 1436.77 1390.56 1435.67 1392.98L1437.5 1393.81ZM1443.76 1378.82L1445.62 1379.54C1446.57 1377.08 1447.49 1374.59 1448.37 1372.08L1446.49 1371.41L1444.6 1370.75C1443.73 1373.23 1442.82 1375.68 1441.89 1378.1L1443.76 1378.82ZM1449.05 1363.84L1450.95 1364.46C1451.78 1361.89 1452.59 1359.3 1453.36 1356.67L1451.44 1356.11L1449.52 1355.54C1448.76 1358.13 1447.97 1360.69 1447.15 1363.23L1449.05 1363.84ZM1453.64 1348.24L1455.58 1348.75C1456.25 1346.22 1456.9 1343.65 1457.52 1341.07L1455.57 1340.6L1453.63 1340.14C1453.02 1342.69 1452.38 1345.22 1451.71 1347.72L1453.64 1348.24ZM1457.34 1332.82L1459.3 1333.24C1459.86 1330.6 1460.4 1327.94 1460.91 1325.25L1458.94 1324.88L1456.98 1324.51C1456.47 1327.17 1455.94 1329.79 1455.39 1332.4L1457.34 1332.82ZM1460.37 1316.8L1462.34 1317.12C1462.77 1314.53 1463.17 1311.92 1463.54 1309.29L1461.56 1309.01L1459.58 1308.73C1459.21 1311.33 1458.82 1313.91 1458.4 1316.47L1460.37 1316.8ZM1462.6 1301.13L1464.58 1301.37C1464.9 1298.7 1465.19 1296.02 1465.46 1293.31L1463.47 1293.11L1461.48 1292.92C1461.22 1295.6 1460.93 1298.26 1460.61 1300.89L1462.6 1301.13ZM1464.18 1284.96L1466.18 1285.12C1466.28 1283.74 1466.38 1282.36 1466.48 1280.97L1464.48 1280.84L1462.48 1280.7C1462.39 1282.08 1462.3 1283.45 1462.19 1284.81L1464.18 1284.96Z" fill="#183A14"/>
</svg>
